<svg xmlns="http://www.w3.org/2000/svg" viewBox="0 0 256 256" role="img" aria-label="Pokenator">
  <defs>
    <radialGradient id="g" cx="35%" cy="35%" r="70%">
      <stop offset="0%" stop-color="#ffffff" stop-opacity="0.95"/>
      <stop offset="55%" stop-color="#ffffff" stop-opacity="0.15"/>
      <stop offset="100%" stop-color="#ffffff" stop-opacity="0"/>
    </radialGradient>
    <filter id="s" x="-20%" y="-20%" width="140%" height="140%">
      <feDropShadow dx="0" dy="6" stdDeviation="6" flood-color="#000000" flood-opacity="0.35"/>
    </filter>
  </defs>

  <!-- Outer circle -->
  <circle cx="128" cy="128" r="108" fill="#111827" filter="url(#s)"/>
  <circle cx="128" cy="128" r="100" fill="#0b0f1a"/>

  <!-- Top half (red) -->
  <path d="M28 128a100 100 0 0 1 200 0H28z" fill="#ef4444"/>
  <!-- Bottom half (light) -->
  <path d="M228 128a100 100 0 0 1-200 0h200z" fill="#f8fafc"/>

  <!-- Middle band -->
  <rect x="28" y="116" width="200" height="24" rx="12" fill="#111827"/>

  <!-- Center button -->
  <circle cx="128" cy="128" r="28" fill="#111827"/>
  <circle cx="128" cy="128" r="20" fill="#f8fafc"/>
  <circle cx="128" cy="128" r="10" fill="#111827"/>

  <!-- Shine -->
  <circle cx="94" cy="86" r="54" fill="url(#g)"/>

  <!-- Question mark -->
  <path d="M128 56c-22 0-38 12-38 30h18c0-9 8-14 20-14 11 0 19 5 19 14 0 8-5 12-13 16-12 6-19 13-19 29v6h18v-4c0-10 3-13 14-19 12-7 18-15 18-29 0-18-16-29-37-29zm-9 106a9 9 0 1 0 18 0 9 9 0 0 0-18 0z"
        fill="#111827" opacity="0.9"/>
</svg>
